<svg id="Capa_1" data-name="Capa 1" xmlns="http://www.w3.org/2000/svg" viewBox="0 0 68.55 14.37"><defs><style>.cls-1{fill:#1ab7ea;}.cls-2{fill:#1d1d1b;}</style></defs><title>Logo</title><path class="cls-1" d="M384.54,297.6h0.06l1.92-4.75h2.06v0.32L385,301.34H384.1l-3.6-8.17v-0.32h2.06Z" transform="translate(-380.51 -292.71)"/><path class="cls-1" d="M392.59,300.19h-3.31l-0.49,1.06h-2.1v-0.31l3.78-8.19h0.92l3.79,8.19v0.31h-2.1Zm-1.67-4L390,298.36h1.92Z" transform="translate(-380.51 -292.71)"/><path class="cls-1" d="M397.1,299.32h3v1.93h-5.21v-8.4h2.16v6.46Z" transform="translate(-380.51 -292.71)"/><path class="cls-1" d="M399.46,294.77v-1.92h6.24v1.92h-2.05v6.48h-2.12v-6.48h-2.06Z" transform="translate(-380.51 -292.71)"/><path class="cls-1" d="M412.7,301.25H410.5v-3.37h-2.59v3.37h-2.19v-8.4h2.19v3h2.59v-3h2.19v8.4Z" transform="translate(-380.51 -292.71)"/><path class="cls-1" d="M413,297.06c0-5.8,8.61-5.8,8.61,0S413,302.88,413,297.06Zm6.42,0a2.11,2.11,0,1,0-4.21,0A2.11,2.11,0,1,0,419.42,297.06Z" transform="translate(-380.51 -292.71)"/><path class="cls-1" d="M429,300.93v0.31h-2.4l-1.44-2.47H424v2.47h-2.15v-8.4h3.68a3,3,0,0,1,1.78,5.42Zm-3.42-6.17c-0.5,0-1,0-1.54,0v2.1h1.54C426.74,296.87,426.8,294.78,425.57,294.77Z" transform="translate(-380.51 -292.71)"/><path class="cls-1" d="M434.2,294.77h-3.11V296h2.85v1.91h-2.85v1.47h3.21v1.91H429v-8.4h5.24v1.92Z" transform="translate(-380.51 -292.71)"/><path class="cls-1" d="M437,297.12v4.13h-2.22v-8.43h0.78l4.25,4.15v-4.11H442v8.41h-0.77Z" transform="translate(-380.51 -292.71)"/><path class="cls-1" d="M447,298.78c0-.59-0.7-0.72-1.54-0.77-1.82-.13-3-0.76-3-2.58-0.07-3.62,6.45-3.62,6.4,0h-2c0-1.12-2.25-1-2.33,0,0,0.64.58,0.77,1.33,0.85,1.67,0.18,3.3.43,3.3,2.53,0,3.53-6.84,3.59-6.79-.11h2.08C444.34,299.75,447,299.76,447,298.78Z" transform="translate(-380.51 -292.71)"/><path class="cls-2" d="M404.24,306a0.92,0.92,0,0,1-.35.76,1.51,1.51,0,0,1-1,.28,2.27,2.27,0,0,1-1-.21v-0.7a4.05,4.05,0,0,0,.61.23,1.77,1.77,0,0,0,.46.07,0.64,0.64,0,0,0,.38-0.1,0.32,0.32,0,0,0,.13-0.28,0.31,0.31,0,0,0-.06-0.19,0.65,0.65,0,0,0-.17-0.16,4.38,4.38,0,0,0-.46-0.24,2.14,2.14,0,0,1-.49-0.29,1.11,1.11,0,0,1-.26-0.33,0.94,0.94,0,0,1-.1-0.44,0.92,0.92,0,0,1,.32-0.74,1.34,1.34,0,0,1,.89-0.27,2.1,2.1,0,0,1,.53.07,3.64,3.64,0,0,1,.53.19l-0.24.59a3.58,3.58,0,0,0-.47-0.16,1.5,1.5,0,0,0-.37,0,0.49,0.49,0,0,0-.33.1,0.33,0.33,0,0,0-.11.26,0.32,0.32,0,0,0,0,.17,0.51,0.51,0,0,0,.15.14,4.57,4.57,0,0,0,.48.25,1.91,1.91,0,0,1,.69.48A0.94,0.94,0,0,1,404.24,306Z" transform="translate(-380.51 -292.71)"/><path class="cls-2" d="M408.41,307h-0.86l-0.94-1.5-0.32.23V307h-0.76v-3.57h0.76v1.63l0.3-.42,1-1.21h0.84L407.15,305Z" transform="translate(-380.51 -292.71)"/><path class="cls-2" d="M409.51,307v-3.57h0.76V307h-0.76Z" transform="translate(-380.51 -292.71)"/><path class="cls-2" d="M415.82,307h-2.06v-3.57h2.06v0.62h-1.3v0.78h1.21v0.62h-1.21v0.92h1.3V307Z" transform="translate(-380.51 -292.71)"/><path class="cls-2" d="M420.1,307h-0.86l-0.83-1.35L417.57,307h-0.81l1.18-1.84-1.11-1.73h0.83l0.77,1.28,0.75-1.28H420l-1.12,1.77Z" transform="translate(-380.51 -292.71)"/><path class="cls-2" d="M423.66,304.57a1.09,1.09,0,0,1-.36.88,1.54,1.54,0,0,1-1,.3H422V307H421.2v-3.57h1.14a1.52,1.52,0,0,1,1,.28A1,1,0,0,1,423.66,304.57Zm-1.71.57h0.25a0.83,0.83,0,0,0,.52-0.14,0.48,0.48,0,0,0,.17-0.4,0.5,0.5,0,0,0-.14-0.39,0.68,0.68,0,0,0-.46-0.13H422v1.06Z" transform="translate(-380.51 -292.71)"/><path class="cls-2" d="M427,307H425v-3.57H427v0.62h-1.3v0.78H427v0.62h-1.21v0.92H427V307Z" transform="translate(-380.51 -292.71)"/><path class="cls-2" d="M429.19,305.66V307h-0.76v-3.57h1a1.78,1.78,0,0,1,1.08.26,1.06,1.06,0,0,1,.18,1.37,1.16,1.16,0,0,1-.49.38l1,1.55h-0.84l-0.85-1.37h-0.4Zm0-.62h0.24a0.93,0.93,0,0,0,.53-0.12,0.43,0.43,0,0,0,.17-0.38,0.39,0.39,0,0,0-.17-0.36,1.07,1.07,0,0,0-.54-0.11h-0.23v1Z" transform="translate(-380.51 -292.71)"/><path class="cls-2" d="M432.39,307v-3.57h0.76V307h-0.76Z" transform="translate(-380.51 -292.71)"/><path class="cls-2" d="M436.75,307h-2.06v-3.57h2.06v0.62h-1.3v0.78h1.21v0.62h-1.21v0.92h1.3V307Z" transform="translate(-380.51 -292.71)"/><path class="cls-2" d="M441.31,307h-1l-1.55-2.7h0c0,0.48,0,.82,0,1V307h-0.68v-3.57h1l1.55,2.67h0q0-.69,0-1v-1.69h0.68V307Z" transform="translate(-380.51 -292.71)"/><path class="cls-2" d="M444.37,304a0.77,0.77,0,0,0-.66.32,1.49,1.49,0,0,0-.23.89q0,1.2.9,1.19a2.82,2.82,0,0,0,.91-0.19v0.63a2.51,2.51,0,0,1-1,.18,1.49,1.49,0,0,1-1.19-.47,2,2,0,0,1-.41-1.36,2.21,2.21,0,0,1,.2-1,1.47,1.47,0,0,1,.58-0.64,1.73,1.73,0,0,1,.89-0.22,2.39,2.39,0,0,1,1,.25l-0.24.62-0.4-.17A1.21,1.21,0,0,0,444.37,304Z" transform="translate(-380.51 -292.71)"/><path class="cls-2" d="M448.75,307h-2.06v-3.57h2.06v0.62h-1.3v0.78h1.21v0.62h-1.21v0.92h1.3V307Z" transform="translate(-380.51 -292.71)"/></svg>